<svg width="206" height="191" viewBox="0 0 206 191" fill="none" xmlns="http://www.w3.org/2000/svg">
<path d="M180.907 1.89022e-05C191.944 32.351 191.747 69.1796 177.7 103.152C163.653 137.125 138.364 161.933 108.647 174.76C97.6098 142.409 97.8067 105.581 111.854 71.608C125.901 37.6354 151.19 12.8273 180.907 1.89022e-05Z" fill="#00FF85"/>
<path d="M24.536 0C13.8878 32.351 14.0778 69.1796 27.6302 103.152C41.1827 137.125 65.5811 161.933 94.2519 174.76C104.9 142.409 104.71 105.581 91.1577 71.608C77.6052 37.6354 53.2068 12.8273 24.536 0Z" fill="#00FF85"/>
<path d="M0 53.2507C0 71.2826 2.66147 89.1379 7.83246 105.797C13.0034 122.456 20.5827 137.593 30.1374 150.344C39.6922 163.094 51.0353 173.208 63.5192 180.109C76.003 187.009 89.3832 190.561 102.896 190.561C116.408 190.561 129.788 187.009 142.272 180.109C154.756 173.208 166.099 163.094 175.654 150.344C185.208 137.593 192.788 122.456 197.959 105.797C203.13 89.1378 205.791 71.2826 205.791 53.2507L164.633 53.2507C164.633 64.0698 163.036 74.783 159.933 84.7786C156.831 94.7741 152.283 103.856 146.55 111.507C140.818 119.157 134.012 125.225 126.521 129.366C119.031 133.506 111.003 135.637 102.896 135.637C94.7881 135.637 86.76 133.506 79.2697 129.366C71.7794 125.225 64.9735 119.157 59.2407 111.507C53.5078 103.856 48.9603 94.7741 45.8577 84.7786C42.7551 74.783 41.1582 64.0699 41.1582 53.2507H0Z" fill="#00FF85"/>
</svg>
