<svg width="157" height="174" viewBox="0 0 157 174" fill="none" xmlns="http://www.w3.org/2000/svg">
<path d="M138.255 28.125C146.69 52.8488 146.54 80.9945 135.804 106.958C125.069 132.921 105.742 151.88 83.0315 161.683C74.5968 136.959 74.7473 108.813 85.4826 82.8504C96.2179 56.8873 115.544 37.9281 138.255 28.125Z" fill="#00FF85"/>
<path d="M18.7512 28.125C10.6135 52.8488 10.7587 80.9945 21.116 106.958C31.4733 132.921 50.1194 151.88 72.0306 161.683C80.1683 136.959 80.0232 108.813 69.6659 82.8503C59.3086 56.8873 40.6625 37.9281 18.7512 28.125Z" fill="#00FF85"/>
<path d="M0 68.8211C0 82.6017 2.03399 96.2473 5.98584 108.979C9.93769 121.71 15.73 133.279 23.0321 143.023C30.3341 152.767 39.003 160.497 48.5436 165.771C58.0842 171.044 68.3097 173.758 78.6364 173.758C88.9631 173.758 99.1887 171.044 108.729 165.771C118.27 160.497 126.939 152.767 134.241 143.023C141.543 133.279 147.335 121.71 151.287 108.979C155.239 96.2473 157.273 82.6016 157.273 68.8211L125.818 68.8211C125.818 77.0894 124.598 85.2768 122.227 92.9157C119.856 100.555 116.38 107.496 111.999 113.342C107.618 119.189 102.416 123.827 96.6921 126.991C90.9678 130.155 84.8324 131.783 78.6364 131.783C72.4404 131.783 66.3051 130.155 60.5807 126.991C54.8563 123.827 49.6551 119.189 45.2738 113.342C40.8926 107.496 37.4172 100.555 35.0461 92.9158C32.675 85.2768 31.4546 77.0894 31.4546 68.8211H0Z" fill="#00FF85"/>
</svg>
