<svg width="700" height="202" viewBox="0 0 700 202" fill="none" xmlns="http://www.w3.org/2000/svg">
<path d="M260.271 154.64C249.118 154.64 239.496 153.273 231.405 150.54C223.314 147.697 217.081 143.378 212.708 137.583C208.334 131.678 206.147 124.079 206.147 114.785V113.801H236.981V117.245C236.981 119.651 237.473 121.564 238.457 122.986C239.551 124.298 241.738 125.227 245.018 125.774C248.298 126.321 253.383 126.594 260.271 126.594C266.503 126.594 271.096 126.43 274.048 126.102C277 125.665 278.859 125.009 279.624 124.134C280.499 123.15 280.936 121.838 280.936 120.198C280.936 118.23 280.171 116.753 278.64 115.769C277.219 114.785 274.267 114.02 269.784 113.473L235.341 108.881C228.562 107.897 222.876 106.093 218.284 103.468C213.692 100.735 210.247 97.1814 207.951 92.8077C205.655 88.4341 204.507 83.2951 204.507 77.3907C204.507 73.017 205.436 68.698 207.295 64.4337C209.154 60.1694 212.161 56.3425 216.316 52.9529C220.471 49.454 225.938 46.6658 232.717 44.5883C239.496 42.5109 247.861 41.4721 257.811 41.4721C269.51 41.4721 279.132 43.1122 286.677 46.3925C294.331 49.5634 300.016 54.1557 303.734 60.1694C307.561 66.0739 309.474 73.1264 309.474 81.3269V82.311H278.64V79.8508C278.64 77.2266 278.039 75.1492 276.836 73.6184C275.743 72.0876 273.447 70.9942 269.948 70.3382C266.558 69.6821 261.419 69.3541 254.531 69.3541C249.282 69.3541 245.291 69.6274 242.558 70.1742C239.824 70.6115 237.911 71.3222 236.817 72.3063C235.833 73.2904 235.341 74.6025 235.341 76.2426C235.341 77.336 235.56 78.3201 235.997 79.1948C236.544 79.9602 237.364 80.5615 238.457 80.9989C239.66 81.4363 241.246 81.819 243.214 82.147L277.656 87.2314C286.622 88.5434 293.565 90.8396 298.486 94.1198C303.406 97.2907 306.85 101.063 308.818 105.437C310.787 109.81 311.771 114.348 311.771 119.05C311.771 125.282 310.021 131.132 306.522 136.599C303.133 141.957 297.666 146.33 290.121 149.72C282.577 153 272.627 154.64 260.271 154.64ZM349.919 153H319.085V43.1122H349.919V153ZM390.601 153H359.767V43.1122H423.896C433.627 43.1122 441.773 44.4243 448.333 47.0485C454.894 49.6727 459.814 53.4996 463.094 58.5293C466.484 63.4497 468.179 69.5181 468.179 76.7346C468.179 82.5297 467.14 87.5594 465.063 91.8237C463.094 95.9786 459.923 99.3682 455.55 101.992C451.176 104.507 445.49 106.202 438.493 107.077V108.717C444.178 110.138 448.224 112.27 450.629 115.113C453.144 117.847 455.441 121.291 457.518 125.446L471.131 153H435.54L422.42 126.102C421.107 123.369 419.741 121.236 418.319 119.706C416.898 118.175 415.039 117.136 412.743 116.589C410.447 115.933 407.276 115.605 403.23 115.605H390.601V153ZM390.601 70.8302V92.6437H423.568C428.051 92.6437 431.221 91.9877 433.08 90.6756C434.939 89.3635 435.868 86.3566 435.868 81.655C435.868 77.2813 434.939 74.3838 433.08 72.9623C431.221 71.5409 428.051 70.8302 423.568 70.8302H390.601ZM506.883 153H476.049V43.1122H506.883V153ZM573.636 153H484.413V125.282H573.636V153ZM571.175 111.505H484.413V83.9511H571.175V111.505ZM573.636 70.8302H484.413V43.1122H573.636V70.8302ZM613.234 153H582.4V43.1122H615.202L645.708 84.2791L661.782 109.537H663.914L662.438 85.5912V43.1122H693.272V153H660.47L627.995 110.685L614.054 89.0355H611.922L613.234 110.029V153Z" fill="#00FF85"/>
<path d="M138.255 28.125C146.69 52.8488 146.54 80.9945 135.804 106.958C125.069 132.921 105.742 151.88 83.0315 161.683C74.5968 136.959 74.7473 108.813 85.4826 82.8504C96.2179 56.8873 115.544 37.9281 138.255 28.125Z" fill="#00FF85"/>
<path d="M18.7512 28.125C10.6135 52.8488 10.7587 80.9945 21.116 106.958C31.4733 132.921 50.1194 151.88 72.0306 161.683C80.1683 136.959 80.0232 108.813 69.6659 82.8503C59.3086 56.8873 40.6625 37.9281 18.7512 28.125Z" fill="#00FF85"/>
<path d="M0 68.8211C0 82.6017 2.03399 96.2473 5.98584 108.979C9.93769 121.71 15.73 133.279 23.0321 143.023C30.3341 152.767 39.003 160.497 48.5436 165.771C58.0842 171.044 68.3097 173.758 78.6364 173.758C88.9631 173.758 99.1887 171.044 108.729 165.771C118.27 160.497 126.939 152.767 134.241 143.023C141.543 133.279 147.335 121.71 151.287 108.979C155.239 96.2473 157.273 82.6016 157.273 68.8211L125.818 68.8211C125.818 77.0894 124.598 85.2768 122.227 92.9157C119.856 100.555 116.38 107.496 111.999 113.342C107.618 119.189 102.416 123.827 96.6921 126.991C90.9678 130.155 84.8324 131.783 78.6364 131.783C72.4404 131.783 66.3051 130.155 60.5807 126.991C54.8563 123.827 49.6551 119.189 45.2738 113.342C40.8926 107.496 37.4172 100.555 35.0461 92.9158C32.675 85.2768 31.4546 77.0894 31.4546 68.8211H0Z" fill="#00FF85"/>
</svg>
