<svg width="500" height="500" viewBox="0 0 500 500" fill="none" xmlns="http://www.w3.org/2000/svg">
<rect width="500" height="500" rx="90" fill="white"/>
<path d="M327.907 155C338.944 187.351 338.747 224.18 324.7 258.152C310.653 292.125 285.364 316.933 255.647 329.76C244.61 297.409 244.807 260.581 258.854 226.608C272.901 192.635 298.19 167.827 327.907 155Z" fill="black"/>
<path d="M171.536 155C160.888 187.351 161.078 224.18 174.63 258.152C188.183 292.125 212.581 316.933 241.252 329.76C251.9 297.409 251.71 260.581 238.158 226.608C224.605 192.635 200.207 167.827 171.536 155Z" fill="black"/>
<path d="M147 208.251C147 226.283 149.661 244.138 154.832 260.797C160.003 277.456 167.583 292.593 177.137 305.344C186.692 318.094 198.035 328.208 210.519 335.109C223.003 342.009 236.383 345.561 249.896 345.561C263.408 345.561 276.788 342.009 289.272 335.109C301.756 328.208 313.099 318.094 322.654 305.344C332.208 292.593 339.788 277.456 344.959 260.797C350.13 244.138 352.791 226.283 352.791 208.251L311.633 208.251C311.633 219.07 310.036 229.783 306.933 239.779C303.831 249.774 299.283 258.856 293.55 266.507C287.818 274.157 281.012 280.225 273.521 284.366C266.031 288.506 258.003 290.637 249.896 290.637C241.788 290.637 233.76 288.506 226.27 284.366C218.779 280.225 211.974 274.157 206.241 266.507C200.508 258.856 195.96 249.774 192.858 239.779C189.755 229.783 188.158 219.07 188.158 208.251H147Z" fill="black"/>
</svg>
